<svg width="64" height="69" viewBox="0 0 64 69" fill="none" xmlns="http://www.w3.org/2000/svg">
<g filter="url(#filter0_d_0_53)">
<path d="M6 50L11.2 41.6C14.2 37 19.2 34 24.8 34H38C38 38.4 34.4 42 30 42H26" stroke="#1B4436" stroke-width="2" stroke-miterlimit="10" stroke-linecap="round" stroke-linejoin="round"/>
<path d="M32 42H46L48.4 38.8C50.6 35.8 54.2 34 58 34L52.6 43.6C49.8 48.8 44.2 52 38.4 52C29 52 19.8 54.8 12 60" stroke="#1B4436" stroke-width="2" stroke-miterlimit="10" stroke-linecap="round" stroke-linejoin="round"/>
<path d="M36 20C36 12.2 42.2 6 50 6C50 13.8 43.8 20 36 20Z" stroke="#1B4436" stroke-width="2" stroke-miterlimit="10" stroke-linecap="round" stroke-linejoin="round"/>
<path d="M36 26C28.2 26 22 19.8 22 12C29.8 12 36 18.2 36 26Z" stroke="#1B4436" stroke-width="2" stroke-miterlimit="10" stroke-linecap="round" stroke-linejoin="round"/>
<path d="M36 4V34" stroke="#1B4436" stroke-width="2" stroke-miterlimit="10" stroke-linecap="round" stroke-linejoin="round"/>
</g>
<defs>
<filter id="filter0_d_0_53" x="-4" y="0" width="72" height="72" filterUnits="userSpaceOnUse" color-interpolation-filters="sRGB">
<feFlood flood-opacity="0" result="BackgroundImageFix"/>
<feColorMatrix in="SourceAlpha" type="matrix" values="0 0 0 0 0 0 0 0 0 0 0 0 0 0 0 0 0 0 127 0" result="hardAlpha"/>
<feOffset dy="4"/>
<feGaussianBlur stdDeviation="2"/>
<feComposite in2="hardAlpha" operator="out"/>
<feColorMatrix type="matrix" values="0 0 0 0 0 0 0 0 0 0 0 0 0 0 0 0 0 0 0.25 0"/>
<feBlend mode="normal" in2="BackgroundImageFix" result="effect1_dropShadow_0_53"/>
<feBlend mode="normal" in="SourceGraphic" in2="effect1_dropShadow_0_53" result="shape"/>
</filter>
</defs>
</svg>
